<svg width="11" height="13" viewBox="0 0 11 13" xmlns="http://www.w3.org/2000/svg">
<path d="M3.46875 7.25C3.60938 7.25 3.75 7.13281 3.75 6.96875V6.03125C3.75 5.89062 3.60938 5.75 3.46875 5.75H2.53125C2.36719 5.75 2.25 5.89062 2.25 6.03125V6.96875C2.25 7.13281 2.36719 7.25 2.53125 7.25H3.46875ZM6 6.96875V6.03125C6 5.89062 5.85938 5.75 5.71875 5.75H4.78125C4.61719 5.75 4.5 5.89062 4.5 6.03125V6.96875C4.5 7.13281 4.61719 7.25 4.78125 7.25H5.71875C5.85938 7.25 6 7.13281 6 6.96875ZM8.25 6.96875V6.03125C8.25 5.89062 8.10938 5.75 7.96875 5.75H7.03125C6.86719 5.75 6.75 5.89062 6.75 6.03125V6.96875C6.75 7.13281 6.86719 7.25 7.03125 7.25H7.96875C8.10938 7.25 8.25 7.13281 8.25 6.96875ZM6 9.21875V8.28125C6 8.14062 5.85938 8 5.71875 8H4.78125C4.61719 8 4.5 8.14062 4.5 8.28125V9.21875C4.5 9.38281 4.61719 9.5 4.78125 9.5H5.71875C5.85938 9.5 6 9.38281 6 9.21875ZM3.75 9.21875V8.28125C3.75 8.14062 3.60938 8 3.46875 8H2.53125C2.36719 8 2.25 8.14062 2.25 8.28125V9.21875C2.25 9.38281 2.36719 9.5 2.53125 9.5H3.46875C3.60938 9.5 3.75 9.38281 3.75 9.21875ZM8.25 9.21875V8.28125C8.25 8.14062 8.10938 8 7.96875 8H7.03125C6.86719 8 6.75 8.14062 6.75 8.28125V9.21875C6.75 9.38281 6.86719 9.5 7.03125 9.5H7.96875C8.10938 9.5 8.25 9.38281 8.25 9.21875ZM10.5 3.125C10.5 2.51562 9.98438 2 9.375 2H8.25V0.78125C8.25 0.640625 8.10938 0.5 7.96875 0.5H7.03125C6.86719 0.5 6.75 0.640625 6.75 0.78125V2H3.75V0.78125C3.75 0.640625 3.60938 0.5 3.46875 0.5H2.53125C2.36719 0.5 2.25 0.640625 2.25 0.78125V2H1.125C0.492188 2 0 2.51562 0 3.125V11.375C0 12.0078 0.492188 12.5 1.125 12.5H9.375C9.98438 12.5 10.5 12.0078 10.5 11.375V3.125ZM9.375 11.2344C9.375 11.3281 9.30469 11.375 9.23438 11.375H1.26562C1.17188 11.375 1.125 11.3281 1.125 11.2344V4.25H9.375V11.2344Z" fill="#9A9A9A"/>
</svg>
